{"accessors":[{"bufferView":2,"componentType":5126,"count":6137,"max":[60.40800857543945,72.54537963867188,56.950836181640625],"min":[-53.7651481628418,-30.656341552734375,-0.8938978314399719],"type":"VEC3"},{"bufferView":2,"byteOffset":73644,"componentType":5126,"count":6137,"max":[0.999544620513916,1,0.9998166561126709],"min":[-0.9999929666519165,-1,-0.9997744560241699],"type":"VEC3"},{"bufferView":1,"componentType":5126,"count":6137,"max":[1,1],"min":[0,0],"type":"VEC2"},{"bufferView":0,"componentType":5125,"count":30096,"type":"SCALAR"},{"bufferView":2,"byteOffset":147288,"componentType":5126,"count":617,"max":[59.39786911010742,34.54948806762695,59.39786911010742],"min":[-59.39786911010742,-11.61994457244873,-59.39786911010742],"type":"VEC3"},{"bufferView":2,"byteOffset":154692,"componentType":5126,"count":617,"max":[0.996430516242981,1,0.996430516242981],"min":[-0.996430516242981,-1,-0.996430516242981],"type":"VEC3"},{"bufferView":1,"byteOffset":49096,"componentType":5126,"count":617,"max":[1,1],"min":[0,0],"type":"VEC2"},{"bufferView":0,"byteOffset":120384,"componentType":5125,"count":1944,"type":"SCALAR"},{"bufferView":2,"byteOffset":162096,"componentType":5126,"count":2696,"max":[68.75765228271484,6.599707126617432,68.75765228271484],"min":[-68.75765228271484,-2.4937844276428223,-68.75765228271484],"type":"VEC3"},{"bufferView":2,"byteOffset":194448,"componentType":5126,"count":2696,"max":[0.9813801646232605,1,1],"min":[-0.9813801646232605,-1,-1],"type":"VEC3"},{"bufferView":1,"byteOffset":54032,"componentType":5126,"count":2696,"max":[1,0.9611481428146362],"min":[0,0.03885185718536377],"type":"VEC2"},{"bufferView":0,"byteOffset":128160,"componentType":5125,"count":14832,"type":"SCALAR"},{"bufferView":2,"byteOffset":226800,"componentType":5126,"count":738,"max":[58.43414306640625,4.799601078033447,58.43414306640625],"min":[-58.43414306640625,-4.799601078033447,-58.43414306640625],"type":"VEC3"},{"bufferView":2,"byteOffset":235656,"componentType":5126,"count":738,"max":[1,1,1],"min":[-1,-1,-1],"type":"VEC3"},{"bufferView":1,"byteOffset":75600,"componentType":5126,"count":738,"max":[1,1],"min":[0,0],"type":"VEC2"},{"bufferView":1,"byteOffset":81504,"componentType":5126,"count":738,"max":[1.048811435699463,1.048811435699463],"min":[-0.048811379820108414,-0.04881143569946289],"type":"VEC2"},{"bufferView":0,"byteOffset":187488,"componentType":5125,"count":3888,"type":"SCALAR"},{"bufferView":2,"byteOffset":244512,"componentType":5126,"count":1300,"max":[64.7419204711914,2.6156563758850098,64.48995971679688],"min":[-64.6774673461914,-19.78290367126465,-64.42909240722656],"type":"VEC3"},{"bufferView":2,"byteOffset":260112,"componentType":5126,"count":1300,"max":[0.9922782182693481,1,0.9980040788650513],"min":[-0.9908045530319214,-1,-0.9899966716766357],"type":"VEC3"},{"bufferView":1,"byteOffset":87408,"componentType":5126,"count":1300,"max":[1,1],"min":[0,0],"type":"VEC2"},{"bufferView":0,"byteOffset":203040,"componentType":5125,"count":6720,"type":"SCALAR"},{"bufferView":2,"byteOffset":275712,"componentType":5126,"count":80,"max":[56.26858901977539,10.918956756591797,56.16229248046875],"min":[-56.26858901977539,-10.927933692932129,-56.16229248046875],"type":"VEC3"},{"bufferView":2,"byteOffset":276672,"componentType":5126,"count":80,"max":[0.9552379846572876,0.9483500719070435,0.9583321809768677],"min":[-0.9614977836608887,-0.9658481478691101,-0.9614486694335938],"type":"VEC3"},{"bufferView":1,"byteOffset":97808,"componentType":5126,"count":80,"max":[1,1],"min":[0,0],"type":"VEC2"},{"bufferView":0,"byteOffset":229920,"componentType":5125,"count":402,"type":"SCALAR"},{"bufferView":2,"byteOffset":277632,"componentType":5126,"count":591,"max":[58.33708953857422,8.92493724822998,58.33708953857422],"min":[-58.33708953857422,-9.223649024963379,-58.33708953857422],"type":"VEC3"},{"bufferView":2,"byteOffset":284724,"componentType":5126,"count":591,"max":[0.9960742592811584,0.9562258124351501,0.9960742592811584],"min":[-0.9960742592811584,-1,-0.9960742592811584],"type":"VEC3"},{"bufferView":1,"byteOffset":98448,"componentType":5126,"count":591,"max":[1,0.5815496444702148],"min":[0,0],"type":"VEC2"},{"bufferView":0,"byteOffset":231528,"componentType":5125,"count":3132,"type":"SCALAR"},{"bufferView":2,"byteOffset":291816,"componentType":5126,"count":184,"max":[54.88106155395508,9.223649024963379,54.88106155395508],"min":[-54.88106155395508,8.92493724822998,-54.88106155395508],"type":"VEC3"},{"bufferView":2,"byteOffset":294024,"componentType":5126,"count":184,"max":[0.292616605758667,1,0.292616605758667],"min":[-0.292616605758667,0.9562175869941711,-0.292616605758667],"type":"VEC3"},{"bufferView":1,"byteOffset":103176,"componentType":5126,"count":184,"max":[1,1],"min":[0,0.5815496444702148],"type":"VEC2"},{"bufferView":0,"byteOffset":244056,"componentType":5125,"count":756,"type":"SCALAR"}],"asset":{"extras":{"author":"negar (https://sketchfab.com/negar)","license":"CC-BY-4.0 (http://creativecommons.org/licenses/by/4.0/)","source":"https://sketchfab.com/3d-models/burger-8bd6e8b9603e4168aa3e38d299f28595","title":"burger"},"generator":"Sketchfab-12.65.0","version":"2.0"},"bufferViews":[{"buffer":0,"byteLength":247080,"name":"floatBufferViews","target":34963},{"buffer":0,"byteLength":104648,"byteOffset":247080,"byteStride":8,"name":"floatBufferViews","target":34962},{"buffer":0,"byteLength":296232,"byteOffset":351728,"byteStride":12,"name":"floatBufferViews","target":34962}],"buffers":[{"byteLength":647960,"uri":"data:application/octet-stream;base64,"}],"materials":[{"doubleSided":true,"name":"SeedsColor","pbrMetallicRoughness":{"baseColorFactor":[1,0.946774,0.704553,1],"metallicFactor":0,"roughnessFactor":0.7906570336340524}},{"doubleSided":true,"name":"BunColor","pbrMetallicRoughness":{"baseColorFactor":[1,0.606086,0.209386,1],"metallicFactor":0,"roughnessFactor":0.8799677420379034}},{"doubleSided":true,"name":"LettuceColor","pbrMetallicRoughness":{"baseColorFactor":[0.163607,1,0.0632344,1],"metallicFactor":0,"roughnessFactor":0.8404324469396448}},{"doubleSided":true,"name":"TomatoColor","pbrMetallicRoughness":{"baseColorFactor":[1,0.09874819999999998,0,1],"metallicFactor":0,"roughnessFactor":0}},{"doubleSided":true,"name":"CheeseColor","pbrMetallicRoughness":{"baseColorFactor":[1,0.695057,0,1],"metallicFactor":0,"roughnessFactor":0}},{"doubleSided":true,"name":"MeatColor","pbrMetallicRoughness":{"baseColorFactor":[0.188868,0.0742239,0,1],"metallicFactor":0,"roughnessFactor":0.7978235010537944}},{"doubleSided":true,"name":"Mat.013","pbrMetallicRoughness":{"baseColorFactor":[1,0.7345,0.41,1],"metallicFactor":0,"roughnessFactor":0.8376900428841293}}],"meshes":[{"name":"seeds_SeedsColor_0","primitives":[{"attributes":{"NORMAL":1,"POSITION":0,"TEXCOORD_0":2},"indices":3,"material":0,"mode":4}]},{"name":"top_bun_1_BunColor_0","primitives":[{"attributes":{"NORMAL":5,"POSITION":4,"TEXCOORD_0":6},"indices":7,"material":1,"mode":4}]},{"name":"Lettuce_LettuceColor_0","primitives":[{"attributes":{"NORMAL":9,"POSITION":8,"TEXCOORD_0":10},"indices":11,"material":2,"mode":4}]},{"name":"tomato_TomatoColor_0","primitives":[{"attributes":{"NORMAL":13,"POSITION":12,"TEXCOORD_0":14,"TEXCOORD_1":15},"indices":16,"material":3,"mode":4}]},{"name":"Cheese_CheeseColor_0","primitives":[{"attributes":{"NORMAL":18,"POSITION":17,"TEXCOORD_0":19},"indices":20,"material":4,"mode":4}]},{"name":"beef_MeatColor_0","primitives":[{"attributes":{"NORMAL":22,"POSITION":21,"TEXCOORD_0":23},"indices":24,"material":5,"mode":4}]},{"name":"Bottom_bun_BunColor_0","primitives":[{"attributes":{"NORMAL":26,"POSITION":25,"TEXCOORD_0":27},"indices":28,"material":1,"mode":4}]},{"name":"Bottom_bun_Mat.013_0","primitives":[{"attributes":{"NORMAL":30,"POSITION":29,"TEXCOORD_0":31},"indices":32,"material":6,"mode":4}]}],"nodes":[{"children":[1],"matrix":[1,0,0,0,0,2.220446049250313e-16,-1,0,0,1,2.220446049250313e-16,0,0,0,0,1],"name":"Sketchfab_model"},{"children":[2],"matrix":[1,0,0,0,0,0,1,0,0,-1,0,0,0,0,0,1],"name":"0dc5091a529342e3ab10ebf70aada391.fbx"},{"children":[3],"name":"RootNode"},{"children":[4,10,12,14,16,18],"matrix":[1,0,0,0,0,0.9999999999999867,1.6292067073209113e-7,0,0,-1.6292067073209113e-7,0.9999999999999867,0,0,0,0,1],"name":"Burger"},{"children":[5,8],"matrix":[1,0,0,0,0,1,1.421085474167178e-14,0,0,-1.421085474167178e-14,1,0,-0.17855150997638702,65.195556640625,-0.27198153734207153,1],"name":"Top_Bun"},{"children":[6],"matrix":[1,0,0,0,0,1,1.4210854688732221e-14,0,0,-1.4210854688732221e-14,1,0,-1.4901161193847656e-8,22.973175048828125,0,1],"name":"Seed"},{"children":[7],"matrix":[0.7071067235853851,-1.0269136815743373e-8,-0.7071066702003149,0,0.6539669294474815,0.380334659248477,0.653966973297106,0,0.26893718377719195,-0.9248488768491926,0.26893721751273847,0,-25.749765396118164,-15.10085678100586,-23.75934600830078,1],"name":"seeds"},{"mesh":0,"name":"seeds_SeedsColor_0"},{"children":[9],"matrix":[1,0,0,0,0,1,1.4210854688732221e-14,0,0,-1.4210854688732221e-14,1,0,-1.4901161193847656e-8,-20.39166259765625,0,1],"name":"top_bun_1"},{"mesh":1,"name":"top_bun_1_BunColor_0"},{"children":[11],"matrix":[1,0,0,0,0,1,1.421085474167178e-14,0,0,-1.421085474167178e-14,1,0,-0.17855150997638702,30.702945709228516,-0.2719822824001312,1],"name":"Lettuce"},{"mesh":2,"name":"Lettuce_LettuceColor_0"},{"children":[13],"matrix":[1,0,0,0,0,1,1.421085474167178e-14,0,0,-1.421085474167178e-14,1,0,-0.17855150997638702,28.244110107421875,-0.27198389172554016,1],"name":"tomato"},{"mesh":3,"name":"tomato_TomatoColor_0"},{"children":[15],"matrix":[-0.757831556361378,6.625171200133261e-8,0.6524502526498763,0,1.444618002708019e-7,0.9999999999999873,6.625179277208873e-8,0,-0.6524502526498637,1.4446183731314414e-7,-0.757831556361378,0,0.29227808117866516,23.296499252319336,0.08174511790275574,1],"name":"Cheese"},{"mesh":4,"name":"Cheese_CheeseColor_0"},{"children":[17],"matrix":[1,0,0,0,0,1,1.421085474167178e-14,0,0,-1.421085474167178e-14,1,0,-0.17855150997638702,9.244041442871094,-0.27198541164398193,1],"name":"beef"},{"mesh":5,"name":"beef_MeatColor_0"},{"children":[19,20],"matrix":[-0.757831556361378,6.625171200133261e-8,0.6524502526498763,0,1.444618002708019e-7,0.9999999999999873,6.625179277208873e-8,0,-0.6524502526498637,1.4446183731314414e-7,-0.757831556361378,0,-0.17855150997638702,-9.421703338623047,-0.27198538184165955,1],"name":"Bottom_bun"},{"mesh":6,"name":"Bottom_bun_BunColor_0"},{"mesh":7,"name":"Bottom_bun_Mat.013_0"}],"scene":0,"scenes":[{"name":"Sketchfab_Scene","nodes":[0]}]}